#!OML:ASF I:\Actors\actors\Patient Classification 2\Patient 1\Session 1\actor1.ASF
:FULLY-SPECIFIED
:DEGREES
117
root -0.521195 18.6838 5.7286 2.55525 -3.03994 -1.41413
lowerback 0.0468017 1.27565 0.421936
upperback -1.48649 1.70049 -0.364756
thorax -1.52468 0.84184 -0.6328
lowerneck -12.3161 -2.64287 -0.503563
upperneck 18.1286 -4.38191 4.19448
head 7.72895 -1.7279 1.01159
rclavicle 3.32498e-015 3.97569e-016
rhumerus -48.6061 6.76516 -94.171
rradius 45.332
rwrist 11.5183
rhand -12.6668 -38.3914
rfingers 7.12502
rthumb 13.4144 -67.9395
lclavicle 3.32498e-015 3.97569e-016
lhumerus -39.7364 -10.5405 93.9141
lradius 43.105
lwrist 0.614917
lhand -0.338382 -19.2263
lfingers 7.12502
lthumb 25.2662 9.12058
rfemur 0 0 0
rtibia 0
rfoot 0 0
rtoes 0
lfemur -4.38618 -5.72336 -13.7075
ltibia 21.6878
lfoot -25.69 17.8267
ltoes -53.8081
118
root -0.523457 18.6839 5.71853 2.44572 -3.02059 -1.47563
lowerback 0.191045 1.26751 0.455654
upperback -1.36751 1.69098 -0.323183
thorax -1.48403 0.837348 -0.610767
lowerneck -12.2438 -2.50091 -0.459235
upperneck 17.486 -4.18928 4.33057
head 7.50219 -1.63335 1.07014
rclavicle 6.49001e-015 -1.90833e-014
rhumerus -48.7365 8.27382 -94.7052
rradius 45.996
rwrist 13.0739
rhand -10.2387 -37.9872
rfingers 7.12502
rthumb 15.7538 -67.3661
lclavicle 6.49001e-015 -1.90833e-014
lhumerus -39.0384 -12.8372 94.2539
lradius 44.9498
lwrist 2.83878
lhand -1.32932 -22.992
lfingers 7.12502
lthumb 24.3165 5.48554
rfemur 0 0 0
rtibia 0
rfoot 0 0
rtoes 0
lfemur -4.28852 -5.62755 -13.6194
ltibia 21.662
lfoot -25.5859 17.7233
ltoes -53.7957
119
root -0.525369 18.684 5.70793 2.30467 -3.01007 -1.51493
lowerback 0.354561 1.28399 0.487063
upperback -1.212 1.7142 -0.29522
thorax -1.41599 0.849357 -0.601764
lowerneck -12.3308 -2.45531 -0.506572
upperneck 16.9248 -4.12365 4.5085
head 7.33766 -1.59795 1.14191
rclavicle -7.21371e-015 1.07344e-014
rhumerus -48.9426 9.91763 -95.4654
rradius 47.0177
rwrist 13.1973
rhand -9.71192 -37.7347
rfingers 7.12502
rthumb 16.261 -67.0728
lclavicle -7.21371e-015 1.07344e-014
lhumerus -38.0386 -15.1803 94.4155
lradius 47.6788
lwrist 4.47374
lhand -2.57617 -24.7792
lfingers 7.12502
lthumb 23.1207 3.85347
rfemur 0 0 0
rtibia 0
rfoot 0 0
rtoes 0
lfemur -4.24738 -5.56788 -13.5668
ltibia 21.81
lfoot -25.6124 17.6555
ltoes -53.9056
120
root -0.520556 18.6825 5.6891 2.11517 -2.9392 -1.7846
lowerback 0.706071 1.29189 0.846648
upperback -1.05775 1.73234 -0.211901
thorax -1.44689 0.855155 -0.724478
lowerneck -12.5805 -2.51972 -0.634789
upperneck 16.5281 -4.20314 4.69479
head 7.26178 -1.63087 1.21297
rclavicle -2.4991e-014 4.77083e-015
rhumerus -49.2639 11.7657 -96.4795
rradius 48.5098
rwrist 11.3821
rhand -10.738 -38.82
rfingers 7.12502
rthumb 15.2729 -68.2362
lclavicle -2.4991e-014 4.77083e-015
lhumerus -36.7166 -17.4607 94.3663
lradius 50.5236
lwrist 6.67227
lhand -4.42176 -26.1773
lfingers 7.12502
lthumb 21.3489 2.6667
rfemur 0 0 0
rtibia 0
rfoot 0 0
rtoes 0
lfemur -4.14463 -5.4979 -13.2721
ltibia 21.8976
lfoot -25.5377 17.5612
ltoes -53.9956
121
root -0.499565 18.6784 5.66086 1.8665 -2.81671 -2.49937
lowerback 1.31268 1.28924 1.93536
upperback -0.936436 1.75816 -0.0820177
thorax -1.63451 0.855617 -1.21481
lowerneck -12.7565 -2.58722 -0.664267
upperneck 16.1302 -4.29151 4.80919
head 7.16956 -1.66963 1.24419
rclavicle -3.60763e-014 1.0138e-014
rhumerus -49.5084 13.3146 -97.2901
rradius 50.2443
rwrist 9.29194
rhand -16.1029 -39.4946
rfingers 7.12502
rthumb 10.1008 -69.2321
lclavicle -3.60763e-014 1.0138e-014
lhumerus -35.128 -19.6555 94.0373
lradius 54.4854
lwrist 9.57563
lhand -6.52249 -25.3918
lfingers 7.12502
lthumb 19.33 3.66746
rfemur 0 0 0
rtibia 0
rfoot 0 0
rtoes 0
lfemur -3.9551 -5.32327 -12.5231
ltibia 21.9563
lfoot -25.3435 17.3139
ltoes -54.0298
122
root -0.523406 18.6857 5.65062 2.1325 -2.97334 -1.81672
lowerback 0.993031 1.39229 0.823211
upperback -0.928612 1.86816 -0.194372
thorax -1.47436 0.923638 -0.701675
lowerneck -12.8879 -2.67998 -0.651408
upperneck 15.7938 -4.41624 4.87397
head 7.08873 -1.72741 1.24916
rclavicle -1.14736e-014 -2.0276e-014
rhumerus -49.6445 14.5957 -97.9087
rradius 52.1299
rwrist 7.35408
rhand -17.8423 -40.6089
rfingers 7.12502
rthumb 8.42253 -70.421
lclavicle -1.14736e-014 -2.0276e-014
lhumerus -33.2032 -21.4949 93.2886
lradius 57.9951
lwrist 12.4454
lhand -8.64096 -27.279
lfingers 7.12502
lthumb 17.292 1.97176
rfemur 0 0 0
rtibia 0
rfoot 0 0
rtoes 0
lfemur -4.3382 -5.28045 -13.1873
ltibia 21.9564
lfoot -25.3045 17.4312
ltoes -53.9726
123
root -0.533774 18.6903 5.63658 2.24498 -3.03281 -1.59658
lowerback 0.94865 1.45445 0.394967
upperback -0.919159 1.94347 -0.208219
thorax -1.45208 0.965849 -0.476646
lowerneck -13.0844 -2.79862 -0.741576
upperneck 15.5936 -4.56751 4.9647
head 7.06719 -1.79807 1.27587
rclavicle 8.54153e-015 3.57812e-015
rhumerus -49.6953 15.8458 -98.4161
rradius 54.3043
rwrist 5.56755
rhand -18.1088 -42.0978
rfingers 7.12502
rthumb 8.16529 -71.9201
lclavicle 8.54153e-015 3.57812e-015
lhumerus -30.9257 -22.9778 92.2717
lradius 61.88
lwrist 14.1024
lhand -10.126 -29.2297
lfingers 7.12502
lthumb 15.8623 0.140526
rfemur 0 0 0
rtibia 0
rfoot 0 0
rtoes 0
lfemur -4.52272 -5.27143 -13.3861
ltibia 21.9353
lfoot -25.245 17.544
ltoes -53.9916
124
root -0.535664 18.6932 5.61883 2.26631 -3.05214 -1.59178
lowerback 1.05716 1.49561 0.272046
upperback -0.899118 1.99723 -0.161165
thorax -1.4977 0.994144 -0.363818
lowerneck -13.0839 -2.81574 -0.788116
upperneck 15.2092 -4.56926 5.01476
head 6.94513 -1.80505 1.29992
rclavicle -1.40081e-014 1.07344e-014
rhumerus -49.5148 17.0357 -98.7144
rradius 56.6962
rwrist 4.16795
rhand -18.012 -43.4573
rfingers 7.12502
rthumb 8.25879 -73.2759
lclavicle -1.40081e-014 1.07344e-014
lhumerus -28.2714 -24.1516 91.0199
lradius 65.6791
lwrist 14.8351
lhand -11.7136 -30.6237
lfingers 7.12502
lthumb 14.333 -1.13847
rfemur 0 0 0
rtibia 0
rfoot 0 0
rtoes 0
lfemur -4.54263 -5.26548 -13.3766
ltibia 21.8041
lfoot -25.1176 17.6276
ltoes -54.0121
125
root -0.537239 18.6947 5.5991 2.24569 -3.01299 -1.66223
lowerback 1.22247 1.48962 0.207413
upperback -0.888423 1.9895 -0.0852996
thorax -1.58444 0.991186 -0.254596
lowerneck -12.9086 -2.81075 -0.68083
upperneck 14.7495 -4.5343 4.88059
head 6.75961 -1.80605 1.24542
rclavicle 2.6339e-014 -1.19271e-015
rhumerus -49.0817 18.1881 -98.8025
rradius 59.207
rwrist 3.2213
rhand -17.3341 -43.6334
rfingers 7.12502
rthumb 8.91292 -73.4252
lclavicle 2.6339e-014 -1.19271e-015
lhumerus -25.2636 -25.1836 89.5231
lradius 69.2224
lwrist 15.5841
lhand -13.3555 -32.6635
lfingers 7.12502
lthumb 12.7505 -3.07284
rfemur 0 0 0
rtibia 0
rfoot 0 0
rtoes 0
lfemur -4.58438 -5.23194 -13.2718
ltibia 21.7787
lfoot -25.002 17.5649
ltoes -54.0513
126
root -0.540592 18.6953 5.58034 2.22996 -2.93764 -1.71346
lowerback 1.37848 1.43608 0.109247
upperback -0.910183 1.91743 -0.0184401
thorax -1.70018 0.95643 -0.134283
lowerneck -12.9576 -2.87848 -0.554514
upperneck 14.6444 -4.60457 4.63538
head 6.72718 -1.85526 1.13878
rclavicle 1.63687e-014 -1.0138e-014
rhumerus -48.4055 19.4201 -98.7892
rradius 61.7261
rwrist 2.60008
rhand -16.9681 -42.5583
rfingers 7.12502
rthumb 9.26608 -72.3346
lclavicle 1.63687e-014 -1.0138e-014
lhumerus -21.795 -26.0366 87.7392
lradius 72.4621
lwrist 16.402
lhand -14.7589 -34.5269
lfingers 7.12502
lthumb 11.3972 -4.8566
rfemur 0 0 0
rtibia 0
rfoot 0 0
rtoes 0
lfemur -4.65407 -5.21452 -13.1778
ltibia 21.7855
lfoot -24.8897 17.4793
ltoes -54.0874
127
root -0.543603 18.6964 5.5655 2.25076 -2.93528 -1.65087
lowerback 1.42317 1.37745 -0.113304
upperback -0.930792 1.83494 0.01186
thorax -1.75459 0.917993 0.0219105
lowerneck -13.0321 -2.8733 -0.493732
upperneck 14.5703 -4.59334 4.55834
head 6.71262 -1.85345 1.1045
rclavicle 1.85429e-015 -1.07344e-014
rhumerus -47.3691 20.7769 -98.7073
rradius 64.1168
rwrist 2.15473
rhand -18.7554 -41.2612
rfingers 7.12502
rthumb 7.54129 -71.1067
lclavicle 1.85429e-015 -1.07344e-014
lhumerus -17.8167 -26.5423 85.6941
lradius 75.2055
lwrist 17.0526
lhand -15.8991 -36.404
lfingers 7.12502
lthumb 10.2975 -6.67608
rfemur 0 0 0
rtibia 0
rfoot 0 0
rtoes 0
lfemur -4.73325 -5.25474 -13.2315
ltibia 21.7906
lfoot -24.8307 17.514
ltoes -54.121
128
root -0.546054 18.6986 5.55084 2.29572 -2.95157 -1.60209
lowerback 1.44044 1.29499 -0.313967
upperback -0.960644 1.72086 0.0348189
thorax -1.80133 0.863641 0.160072
lowerneck -12.8577 -2.72533 -0.538317
upperneck 14.2628 -4.40686 4.80229
head 6.58599 -1.75434 1.21094
rclavicle 3.0501e-015 -1.07344e-014
rhumerus -45.9376 22.155 -98.5372
rradius 66.2889
rwrist 1.80834
rhand -21.4234 -40.5351
rfingers 7.12502
rthumb 4.96558 -70.4569
lclavicle 3.0501e-015 -1.07344e-014
lhumerus -13.5213 -26.6296 83.4855
lradius 77.4172
lwrist 17.5499
lhand -16.8857 -38.5818
lfingers 7.12502
lthumb 9.34559 -8.80896
rfemur 0 0 0
rtibia 0
rfoot 0 0
rtoes 0
lfemur -4.82365 -5.25644 -13.2661
ltibia 21.7727
lfoot -24.7831 17.515
ltoes -54.1425
129
root -0.55139 18.7009 5.53555 2.28504 -2.81753 -1.63721
lowerback 1.55566 1.1401 -0.450676
upperback -1.00873 1.51164 0.0940733
thorax -1.91932 0.761487 0.300343
lowerneck -12.5625 -2.50496 -0.691453
upperneck 13.8932 -4.11969 5.19345
head 6.42093 -1.60388 1.39209
rclavicle 2.2618e-014 -6.16232e-015
rhumerus -44.2245 23.4336 -98.2484
rradius 68.334
rwrist 1.38932
rhand -22.4235 -41.1748
rfingers 7.12502
rthumb 3.99981 -71.117
lclavicle 2.2618e-014 -6.16232e-015
lhumerus -9.1026 -26.407 81.2306
lradius 79.1201
lwrist 17.9362
lhand -17.9866 -40.9845
lfingers 7.12502
lthumb 8.2833 -11.1669
rfemur 0 0 0
rtibia 0
rfoot 0 0
rtoes 0
lfemur -4.88572 -5.26211 -13.171
ltibia 21.7541
lfoot -24.6876 17.3739
ltoes -54.1169
130
root -0.558873 18.7024 5.52529 2.19383 -2.52731 -1.64429
lowerback 1.67745 0.922122 -0.676774
upperback -1.02382 1.2164 0.192247
thorax -2.00745 0.617994 0.534759
lowerneck -12.5581 -2.37813 -0.699625
upperneck 13.8512 -3.94357 5.19577
head 6.40138 -1.52007 1.41078
rclavicle 1.55984e-014 -3.97569e-015
rhumerus -42.338 24.6957 -97.791
rradius 70.3913
rwrist 0.861902
rhand -22.6764 -42.3264
rfingers 7.12502
rthumb 3.75557 -72.273
lclavicle 1.55984e-014 -3.97569e-015
lhumerus -4.61405 -25.9293 79.002
lradius 80.3527
lwrist 18.1265
lhand -19.5163 -43.6078
lfingers 7.12502
lthumb 6.80679 -13.7372
rfemur 0 0 0
rtibia 0
rfoot 0 0
rtoes 0
lfemur -4.87248 -5.30008 -13.0873
ltibia 21.7368
lfoot -24.5133 17.1551
ltoes -54.1667
131
root -0.555596 18.7064 5.50245 2.37772 -3.30103 -1.64811
lowerback 1.69555 1.05342 -0.835581
upperback -1.13836 1.38834 0.255304
thorax -2.14322 0.707435 0.680567
lowerneck -12.6874 -2.30243 -0.558187
upperneck 13.9212 -3.83192 4.94719
head 6.43444 -1.47571 1.31751
rclavicle 3.81915e-014 -1.51076e-014
rhumerus -40.2358 25.9849 -97.156
rradius 72.317
rwrist 0.627525
rhand -23.3905 -42.7067
rfingers 7.12502
rthumb 3.06596 -72.6644
lclavicle 3.81915e-014 -1.51076e-014
lhumerus -0.0848495 -25.1891 76.8169
lradius 81.0498
lwrist 18.119
lhand -21.2124 -46.7658
lfingers 7.12502
lthumb 5.16924 -16.8489
rfemur 0 0 0
rtibia 0
rfoot 0 0
rtoes 0
lfemur -4.96758 -5.20911 -13.1897
ltibia 21.7175
lfoot -24.876 17.6752
ltoes -53.9558
